<?xml version="1.0" encoding="UTF-8"?><svg id="graphics" xmlns="http://www.w3.org/2000/svg" viewBox="0 0 389.7 90.56"><defs><style>.cls-1{font-family:BerlinSansFBDemi-Bold, 'Berlin Sans FB Demi';font-size:70px;font-weight:700;}.cls-1,.cls-2{fill:#231f20;}</style></defs><path class="cls-2" d="m102.89,46.09c2.21-1.54,2.68-3.75,1.68-6.04-1.44-3.28-5.56-6.04-10.31-5.45-6.17.77-8.8,5-9.92,8.22-2.33,6.69,2.42,15.51,10.72,12.08,3.78-1.57,2.29-4.94,7.84-8.8Z"/><path class="cls-2" d="m110.38,51.17c-1.71,2.36,3.48,6.84,5.23,4.64,2.14-2.7,2.95-6.71-.47-6.7,0,0-3.36.13-4.76,2.06Z"/><path class="cls-2" d="m119.94,47.4c-2.13-3.34-4.79-3.86-5.62-4.26-.28-10.59-6.09-19.69-14.52-24.78.87-4.16-1.75-9.94-8.56-9.42-4.17.32-6.55,2.61-8.05,5.09-.67.02-1.33.07-2,.14-1.54-3.93-5.64-5.38-9.86-2.44C63.87,4.3,53.65,0,42.99,0c-11.99,0-23.33,5.17-31.15,14.69-1.83-1.67-4.64-2.99-8.16-.67-5.98,3.92-3.93,12.51.91,14.11-1.11,3.6-1.7,7.36-1.74,11.2-1.25,2.32-2.16,5.49-2.35,9.84-.44,9.96,2.8,28.68,21.45,29.37,4.07.15,7.65-.41,10.61-1.65,5.14,0,24.74.01,31.74.01,2.89,1.03,6.14,1.6,9.77,1.6,11.59,0,19.65.87,22.03-5.39,4-.68,9.64-2.22,14.83-5.7,7.39-.27,12.63-.76,15.11-4.31,3.04-4.37,1.26-12.91-6.09-15.7Zm-87.94,26.93c-5.23,2.65-9.53,2.62-11.34.14-2.45-3.37.41-9.7,6.69-13.2,5.14-2.87,8.67-2.22,10.33-.44,3.4,3.63.7,10.27-5.68,13.5Zm86.91-19.72c-1.12,4.52-4.93,7.62-7.06,9.13-5.24,3.72-10.89,5.96-15.2,6.81.38-4.93-2.77-10.95-9.89-12.22-6.25-1.11-8.92-.26-15.58-1.3-5.02-.78-12.08-6.34-13.56-15.41-1.01-6.2-.67-10.09-4.03-10.75-5.1-1-8.18,8.9-7.67,16.21.82,11.72,5.07,22.03,13.47,27.42-6.99,0-17.31,0-22.83,0,6.94-5.64,6.92-15.19,3.08-20.17-3.37-4.37-8.52-3.91-12.22-2.77-1.19-3.87-2.22-7.59-2.64-9.34-2.16-9.04-12.4-12.81-19.35-6.29C7.31,17.59,22.93,2.39,42.99,2.39c9.99,0,19.58,4.02,26.59,10.96-2.23,2.76-2.2,6.37-2.19,8.7.03,7,6.16,7.49,8.06,4.34,2.24-3.73,1.06-2.58,4.92-6.24.95-.9,1.36-2.24,1.32-3.63,12.34-1.1,23.35,5.97,27.95,16.45.86,2.91-1.3,4.58-1.06,7.88.17,2.38,1.88,3.27,4.38,4.28.39.22.86.42,1.43.62,3.39,1.17,5.36,5.48,4.52,8.86Z"/><text class="cls-1" transform="translate(132.36 76.24)"><tspan x="0" y="0">Pattools</tspan></text></svg>